<?xml version="1.0" standalone="no"?>
<!DOCTYPE svg PUBLIC "-//W3C//DTD SVG 20010904//EN"
 "http://www.w3.org/TR/2001/REC-SVG-20010904/DTD/svg10.dtd">
<svg version="1.0" xmlns="http://www.w3.org/2000/svg"
 width="600.000000pt" height="709.000000pt" viewBox="0 0 600.000000 709.000000"
 preserveAspectRatio="xMidYMid meet">
<metadata>
Created by potrace 1.16, written by Peter Selinger 2001-2019
</metadata>
<g transform="translate(0.000000,709.000000) scale(0.100000,-0.100000)"
fill="#000000" stroke="none">
<path d="M0 3545 l0 -3545 3000 0 3000 0 0 3545 0 3545 -3000 0 -3000 0 0
-3545z m3794 3171 c63 -130 96 -291 115 -571 6 -82 15 -166 21 -185 12 -43 12
-43 0 -35 -13 8 -81 -30 -72 -41 4 -4 -1 -2 -11 6 -22 16 -78 125 -100 195 -9
28 -34 120 -56 205 -45 181 -87 291 -142 373 -21 33 -33 54 -25 48 10 -9 16
-9 21 -1 4 6 17 15 28 21 12 5 31 15 42 21 105 66 104 65 92 79 -7 8 2 1 20
-15 18 -16 48 -61 67 -100z m-689 -37 c84 -88 145 -169 266 -349 166 -247 322
-430 436 -513 l43 -30 -38 -23 c-20 -13 -43 -24 -50 -24 -7 0 -10 -4 -7 -10
12 -19 -8 -9 -83 43 -106 73 -288 256 -494 497 -184 214 -274 308 -345 355
-45 29 -54 39 -26 28 11 -4 14 -3 9 6 -4 6 -4 10 1 9 15 -5 182 96 175 106
-14 24 58 -38 113 -95z m-651 -210 c138 -88 327 -229 581 -434 304 -245 564
-409 735 -463 36 -12 72 -23 80 -26 11 -3 11 -5 -3 -5 -9 -1 -42 -16 -73 -33
-31 -18 -73 -43 -95 -56 l-39 -22 -81 41 c-168 84 -355 213 -644 443 -345 276
-554 408 -809 511 -60 25 -73 33 -57 38 11 3 19 1 15 -4 -10 -16 8 -9 25 10 9
10 26 21 39 25 12 4 22 12 22 17 0 6 5 7 10 4 6 -3 10 -1 10 5 0 6 4 9 9 6 4
-3 17 2 27 10 10 9 12 12 4 8 -8 -4 -12 -4 -8 0 3 4 8 6 11 4 8 -6 37 24 31
34 -10 16 95 -41 210 -113z m-438 -173 c192 -65 438 -223 884 -566 241 -186
548 -380 689 -436 33 -13 40 -19 28 -26 -8 -4 -32 -38 -53 -76 -20 -37 -44
-75 -52 -84 -8 -10 -11 -18 -7 -18 4 0 1 -8 -7 -17 -29 -34 -67 -113 -55 -114
24 -1 -121 -52 -208 -72 -123 -29 -416 -31 -550 -4 -210 43 -480 154 -662 272
-101 66 -233 197 -282 278 -73 123 -102 229 -99 356 l2 76 6 -80 c3 -44 7 -69
8 -55 1 14 9 36 18 48 8 12 12 27 9 32 -3 6 -2 10 3 10 6 0 19 16 31 36 12 19
17 32 11 29 -5 -3 -2 7 7 24 10 16 22 27 27 24 5 -4 7 1 3 11 -4 9 -3 15 2 12
9 -6 26 22 22 38 -1 4 5 13 14 20 14 10 21 27 24 59 1 4 7 7 15 7 14 0 30 34
26 59 -1 8 3 10 11 5 9 -5 10 -2 6 9 -4 10 -2 16 6 14 7 -1 11 6 11 15 -1 10
2 16 6 13 11 -7 52 73 44 87 -4 6 -3 8 4 4 6 -3 13 -2 16 3 4 5 -6 14 -21 19
-58 21 -4 11 63 -12z m2984 -332 c30 -15 57 -31 60 -34 5 -7 51 -34 60 -35 9
-1 55 -28 60 -35 7 -11 74 -44 83 -42 4 1 7 -2 7 -8 0 -5 6 -10 13 -10 8 0 24
-9 37 -20 13 -11 29 -20 37 -20 7 0 13 -5 13 -11 0 -5 5 -7 10 -4 6 3 10 2 10
-4 0 -5 10 -13 23 -17 12 -4 25 -12 29 -18 5 -7 8 -6 9 4 3 48 29 -98 29 -165
0 -303 -190 -571 -464 -654 -88 -27 -110 -26 -150 4 -18 14 -35 25 -38 25 -3
0 -36 18 -72 40 -36 22 -74 40 -83 40 -10 0 5 13 32 29 28 16 65 45 84 65 l34
35 -54 -20 c-42 -17 -69 -20 -124 -17 -115 8 -194 59 -244 160 -58 115 -37
243 53 334 80 79 200 106 306 69 36 -13 41 -13 30 -1 -23 29 -106 75 -165 91
-153 45 -318 -15 -418 -150 -37 -50 -29 -18 16 68 38 72 108 137 196 180 63
31 71 32 186 32 114 0 123 -2 188 -32 87 -41 177 -127 217 -205 28 -57 30 -58
36 -33 10 41 -3 154 -26 219 -23 69 -49 113 -103 181 -39 48 -39 49 -6 19 19
-18 59 -45 89 -60z m-3409 -503 c72 -265 278 -470 574 -570 102 -35 82 -40
-46 -12 -233 52 -444 181 -577 354 -45 59 -127 205 -119 213 3 3 8 -4 12 -15
3 -12 11 -19 16 -16 5 4 6 -2 2 -12 -8 -23 1 -15 17 16 10 19 10 22 -2 16 -8
-4 -8 -2 2 7 8 7 16 20 18 28 2 8 9 18 15 22 6 3 12 13 13 22 3 24 31 49 37
33 3 -6 4 24 2 68 l-4 80 10 -80 c5 -44 19 -113 30 -154z m127 -522 c189 -125
443 -217 762 -278 275 -52 549 -31 849 65 211 68 383 169 541 319 l84 80 -39
-55 c-140 -198 -333 -347 -570 -439 -209 -82 -389 -114 -645 -115 -261 0 -462
34 -667 114 -42 16 -79 28 -81 25 -9 -9 250 -126 353 -158 240 -76 423 -102
673 -94 139 4 199 11 282 30 341 81 575 246 754 530 l55 88 52 -106 c28 -58
49 -109 45 -112 -3 -4 -6 0 -7 8 0 8 -4 4 -9 -9 -5 -12 -9 -25 -9 -28 0 -4 -3
-10 -8 -13 -12 -9 -31 -40 -55 -91 -11 -24 -27 -50 -34 -58 -8 -7 -14 -19 -14
-26 0 -7 -9 -23 -20 -36 -11 -13 -23 -34 -26 -46 -3 -12 -12 -25 -20 -28 -8
-3 -14 -15 -14 -26 0 -11 -5 -20 -11 -20 -5 0 -7 -4 -4 -10 3 -5 2 -10 -3 -10
-10 0 -68 -101 -64 -112 1 -5 -2 -8 -7 -8 -5 0 -13 -10 -17 -22 -4 -13 -18
-38 -32 -55 -13 -18 -20 -33 -16 -33 5 0 4 -4 -1 -8 -24 -17 -87 -127 -78
-136 4 -3 1 -6 -5 -6 -6 0 -14 -9 -17 -21 -4 -12 -14 -30 -24 -40 -9 -11 -14
-22 -13 -26 2 -3 0 -9 -5 -12 -15 -11 -43 -60 -43 -76 0 -8 -4 -15 -9 -15 -5
0 -15 -15 -22 -32 -7 -18 -21 -42 -31 -52 -9 -10 -15 -23 -12 -28 3 -4 1 -8
-4 -8 -5 0 -16 -15 -23 -32 -7 -18 -19 -39 -26 -46 -7 -7 -13 -20 -13 -28 0
-8 -3 -14 -8 -14 -8 0 -43 -60 -42 -73 0 -4 -7 -15 -16 -25 -17 -16 -16 -17
12 -23 48 -9 -127 -22 -198 -14 -276 29 -535 134 -808 328 -322 230 -576 497
-828 873 -68 102 -172 283 -172 299 1 5 8 -2 16 -17 18 -35 23 -35 19 -3 -1
14 2 28 8 32 6 3 7 1 3 -5 -15 -24 2 -11 19 14 9 15 12 23 6 20 -7 -5 -9 -1
-5 8 3 9 10 16 16 16 5 0 6 5 3 10 -3 6 1 10 9 10 22 0 20 9 -6 39 -13 14 14
-9 60 -52 46 -42 118 -100 160 -128z m-850 14 c1 4 16 1 32 -8 17 -9 30 -11
30 -5 0 5 -5 10 -12 10 -6 0 -9 2 -6 5 10 10 39 -8 34 -21 -5 -14 140 -104
169 -104 8 0 15 -4 15 -9 0 -5 33 -27 74 -50 41 -22 81 -48 90 -56 9 -9 16
-13 16 -10 0 4 11 0 25 -9 15 -10 25 -12 25 -6 0 6 5 8 10 5 6 -4 8 -10 6 -14
-3 -4 7 -8 21 -9 19 -1 24 2 19 13 -10 27 3 16 20 -17 32 -64 207 -323 304
-452 130 -173 309 -388 570 -681 355 -400 484 -590 583 -855 57 -153 80 -280
80 -455 1 -282 -41 -427 -191 -651 -123 -183 -359 -432 -602 -635 -200 -167
-687 -526 -622 -458 14 15 17 33 3 25 -4 -3 -17 1 -27 8 -15 11 -22 12 -34 3
-8 -7 93 96 226 228 305 304 444 477 535 668 54 115 71 184 76 324 9 221 -30
401 -137 621 -86 177 -148 268 -268 394 -105 109 -165 153 -222 163 -55 9
-167 -9 -370 -61 -272 -69 -349 -69 -427 -1 -63 55 -80 138 -47 228 34 94 13
178 -50 199 -47 15 -70 44 -70 87 0 51 39 83 102 83 l47 0 -72 35 c-130 63
-156 128 -83 200 59 58 53 78 -40 134 -41 25 -99 68 -127 96 -44 43 -53 57
-53 86 1 31 7 38 81 88 45 30 115 88 158 130 75 75 181 219 181 247 0 9 -11
14 -30 14 -39 0 -78 20 -110 56 -14 16 -18 23 -8 16 24 -19 80 -33 103 -25 17
5 13 8 -20 18 -39 13 -39 13 -10 14 51 2 54 14 29 100 -30 103 -44 213 -42
319 1 86 1 86 8 27 4 -33 7 -57 8 -52z m3534 -1059 c-3 -321 -1 -395 9 -388
28 17 -35 -58 -95 -113 -161 -147 -419 -249 -733 -289 -125 -15 -312 -48 -349
-60 -11 -3 -15 -2 -9 3 13 10 13 196 1 205 -5 3 10 12 35 18 227 59 493 174
664 287 132 88 292 249 358 360 57 96 104 226 113 312 4 33 7 61 8 61 1 0 -1
-178 -2 -396z"/>
</g>
</svg>
